<?xml version="1.0" ?><svg id="Layer_1" style="enable-background:new 1 -1 100 100;" version="1.1" viewBox="1 -1 100 100" xml:space="preserve" xmlns="http://www.w3.org/2000/svg" xmlns:xlink="http://www.w3.org/1999/xlink"><title/><g><path d="M51,34.5c-6.7-0.1-12.1,5.2-12.2,11.9c-0.1,5.6,3.7,10.5,9.1,11.9v25.5h6.2V58.2c6.4-1.7,10.3-8.3,8.5-14.8   C61.2,38.2,56.4,34.5,51,34.5z"/><path d="M89.4,20.8c-2-2.4-4.2-4.6-6.6-6.5L79,19c15.2,12.1,17.7,34.2,5.6,49.4c-1.6,2.1-3.5,4-5.6,5.6l3.8,4.8   C100.6,64.7,103.6,38.7,89.4,20.8z"/><path d="M80,27.2c-1.5-1.7-3.1-3.4-5-4.9l-3.8,4.8c10.7,8.5,12.5,24,4,34.6c-1.2,1.5-2.5,2.8-4,4l3.8,4.8   C88.3,60,90.6,40.5,80,27.2z"/><path d="M71.1,33.7c-1-1.1-2.1-2.2-3.3-3.2L64,35.2c6.2,4.9,7.2,13.9,2.3,20.1c-0.7,0.9-1.5,1.6-2.3,2.3l3.8,4.8   C76.7,55.5,78.2,42.5,71.1,33.7z"/><path d="M9.8,46.5c0-10.7,4.9-20.8,13.3-27.5l-3.8-4.8c-17.9,14.2-20.9,40.2-6.6,58c1.9,2.4,4.1,4.6,6.6,6.6l3.8-4.8   C14.7,67.4,9.8,57.2,9.8,46.5z"/><path d="M21.5,46.5c0-7.5,3.4-14.6,9.3-19.3L27,22.4c-13.3,10.6-15.6,30-5,43.3c1.5,1.8,3.1,3.5,5,5l3.8-4.8   C24.9,61.2,21.5,54,21.5,46.5z"/><path d="M38.1,35.4l-3.8-4.9c-8.9,7-10.4,19.9-3.3,28.8c1,1.2,2.1,2.3,3.3,3.3l3.8-4.8c-6.2-4.9-7.2-13.9-2.3-20.1   C36.4,36.8,37.2,36,38.1,35.4z"/></g></svg>