<?xml version="1.0" ?><svg data-name="Layer 1" id="Layer_1" viewBox="0 0 512 512" xmlns="http://www.w3.org/2000/svg"><path d="M459.73,163.76l-59-103.3A5.46,5.46,0,0,0,396,57.7H141.14a5.49,5.49,0,0,0-4.7,2.66l-62,103.3a5.47,5.47,0,0,0,4.7,8.29h23v76H96a5.46,5.46,0,0,0-4.69,2.66l-39,64.93A5.47,5.47,0,0,0,57,323.87H73.68V443.35H57a5.48,5.48,0,0,0,0,10.95H449.57a5.48,5.48,0,0,0,0-10.95H431.92V172H455a5.48,5.48,0,0,0,4.75-8.19ZM99.08,258.94H253l30.85,54H66.69ZM84.63,323.87h177V443.35h-177ZM378,443.35H317.15v-93.3A30.11,30.11,0,0,1,347.23,320h.71A30.11,30.11,0,0,1,378,350.05Zm43,0H389v-93.3a41.07,41.07,0,0,0-41-41h-.71a41.07,41.07,0,0,0-41,41v93.3H272.54V323.87h20.71a5.48,5.48,0,0,0,4.76-8.19L260.9,250.75a5.46,5.46,0,0,0-4.75-2.76h-143V172H421ZM88.83,161l55.41-92.35H392.77L445.54,161Z"/><path d="M158.35,232h37.39a5.47,5.47,0,0,0,5.48-5.47V189.1a5.47,5.47,0,0,0-5.48-5.47H158.35a5.47,5.47,0,0,0-5.47,5.47v37.39A5.47,5.47,0,0,0,158.35,232Zm5.48-37.38h26.44V221H163.83Z"/><path d="M248.38,232h37.38a5.47,5.47,0,0,0,5.47-5.47V189.1a5.47,5.47,0,0,0-5.47-5.47H248.38a5.47,5.47,0,0,0-5.48,5.47v37.39A5.47,5.47,0,0,0,248.38,232Zm5.47-37.38h26.43V221H253.85Z"/><path d="M338.39,232h37.39a5.47,5.47,0,0,0,5.48-5.47V189.1a5.47,5.47,0,0,0-5.48-5.47H338.39a5.47,5.47,0,0,0-5.47,5.47v37.39A5.47,5.47,0,0,0,338.39,232Zm5.48-37.38h26.44V221H343.87Z"/><path d="M154.42,349.89H116.54a5.47,5.47,0,0,0-5.47,5.48v62.07a5.48,5.48,0,0,0,5.47,5.48h37.88a5.48,5.48,0,0,0,5.47-5.48V355.37A5.47,5.47,0,0,0,154.42,349.89ZM148.94,412H122V360.84h26.92Z"/><path d="M227.22,349.89H189.35a5.48,5.48,0,0,0-5.48,5.48v62.07a5.48,5.48,0,0,0,5.48,5.48h37.87a5.48,5.48,0,0,0,5.48-5.48V355.37A5.48,5.48,0,0,0,227.22,349.89ZM221.75,412H194.82V360.84h26.93Z"/></svg>